<?xml version="1.0" encoding="UTF-8"?>
<svg width="485px" height="477px" viewBox="0 0 485 477" version="1.1" xmlns="http://www.w3.org/2000/svg" xmlns:xlink="http://www.w3.org/1999/xlink">
    <title>virus</title>
    <g id="Page-1" stroke="none" stroke-width="1" fill="none" fill-rule="evenodd">
        <g id="virus" fill-rule="nonzero">
            <g id="XMLID_107_" fill="#222022">
                <path d="M484.426045,217.980128 C486.196045,240.880128 470.086045,261.210128 448.456045,263.380128 C431.896045,265.040128 416.916045,255.570128 409.996045,240.780128 L390.366045,242.510128 L375.546045,249.660128 C372.156045,251.290128 369.876045,254.530128 369.356045,258.250128 C367.956045,268.280128 365.416045,277.940128 361.886045,287.120128 C360.686045,290.230128 360.896045,293.700128 362.526045,296.600128 L367.806045,306.040128 L382.486045,315.890128 C390.226045,312.930128 399.236045,313.640128 406.646045,318.610128 C419.206045,327.040128 422.216045,344.390128 412.876045,356.600128 C404.836045,367.120128 389.886045,370.010128 378.506045,363.250128 C371.256045,358.950128 366.876045,351.810128 365.806045,344.180128 L349.536045,333.270128 L339.296045,332.020128 C335.776045,331.590128 332.276045,332.800128 329.716045,335.250128 C321.076045,343.480128 311.316045,350.550128 300.706045,356.210128 C297.136045,358.110128 294.846045,361.760128 294.596045,365.790128 L293.296045,386.530128 L299.736045,412.080128 C310.696045,415.140128 319.756045,423.830128 322.736045,435.650128 C327.236045,453.520128 316.136045,471.650128 298.036045,475.680128 C281.706045,479.320128 264.956045,469.800128 259.766045,453.890128 C255.726045,441.470128 259.436045,428.630128 267.976045,420.240128 L261.506045,394.540128 L251.516045,378.480128 C248.836045,374.170128 244.096045,371.620128 239.016045,371.630128 C238.986045,371.630128 238.966045,371.630128 238.936045,371.630128 C230.186045,371.630128 221.626045,370.760128 213.346045,369.130128 C208.416045,368.150128 203.326045,369.710128 199.866045,373.360128 L186.666045,387.290128 L171.886045,417.950128 C175.346045,424.980128 175.656045,433.470128 171.996045,441.080128 C165.416045,454.720128 148.636045,460.140128 135.226045,452.600128 C123.746045,446.130128 118.776045,431.850128 123.776045,419.650128 C127.186045,411.330128 134.256045,405.770128 142.256045,403.910128 L157.126045,373.050128 L160.046045,352.340128 C160.576045,348.520128 159.116045,344.670128 156.116045,342.250128 C144.286045,332.650128 134.146045,321.060128 126.216045,307.980128 C124.246045,304.730128 120.706045,302.760128 116.906045,302.730128 L96.2260451,302.530128 L73.5860451,309.650128 C71.9960451,323.730128 62.3560451,336.240128 47.9760451,340.760128 C28.6560451,346.840128 8.07604506,336.220128 1.80604506,317.020128 C-4.46395494,297.830128 6.12604506,276.840128 25.2960451,270.500128 C38.7160451,266.060128 52.8160451,269.750128 62.3560451,278.820128 L86.3860451,271.260128 L103.936045,258.750128 C106.546045,256.900128 107.936045,253.800128 107.676045,250.620128 C107.386045,247.090128 107.236045,243.530128 107.236045,239.930128 C107.236045,220.370128 111.536045,201.800128 119.216045,185.100128 C120.336045,182.650128 120.306045,179.830128 119.126045,177.410128 L113.926045,166.780128 L99.8160451,156.130128 C91.9160451,158.660128 82.9660451,157.450128 75.8460451,152.080128 C63.7660451,142.960128 61.7260451,125.470128 71.7260451,113.800128 C80.3360451,103.750128 95.4260451,101.690128 106.416045,109.070128 C113.416045,113.770128 117.396045,121.130128 118.036045,128.810128 L133.676045,140.610128 L149.436045,143.420128 C160.906045,132.770128 174.276045,124.140128 188.966045,118.090128 L192.666045,95.6101277 L187.996045,72.3901277 C174.176045,68.8301277 162.956045,58.2401277 159.936045,44.1201277 C155.676045,24.1701277 169.386045,4.74012771 190.566045,0.730127713 C211.736045,-3.27987229 232.356045,9.63012771 236.616045,29.5801277 C239.806045,44.5101277 232.936045,59.1401277 220.396045,67.2401277 L224.806045,89.1401277 L235.636045,106.420128 C236.346045,107.550128 237.586045,108.230128 238.916045,108.230128 L238.936045,108.230128 C263.736045,108.230128 286.956045,115.130128 306.786045,127.110128 C307.876045,127.760128 309.216045,127.850128 310.366045,127.310128 L327.326045,119.450128 L347.126045,98.0301277 C345.936045,90.3501277 348.126045,82.2101277 353.816045,76.0601277 C364.096045,64.9501277 381.696045,64.6701277 392.316045,75.7801277 C401.626045,85.5301277 401.986045,101.080128 393.146045,111.260128 C387.426045,117.850128 379.216045,120.890128 371.196045,120.290128 L351.396045,141.710128 L344.966045,159.010128 C344.516045,160.210128 344.716045,161.550128 345.466045,162.590128 C353.276045,173.310128 359.506045,185.250128 363.806045,198.070128 C364.996045,201.590128 367.796045,204.330128 371.376045,205.340128 L387.476045,209.850128 L408.396045,208.000128 C413.526045,193.210128 426.336045,182.020128 442.066045,180.440128 C463.696045,178.270128 482.666045,195.080128 484.426045,217.980128 L484.426045,217.980128 Z" id="Path"></path>
            </g>
            <g id="XMLID_8_" transform="translate(141.416045, 142.410128)" fill="#828282">
                <circle id="Oval" cx="97.52" cy="97.52" r="97.52"></circle>
            </g>
            <path d="M171.140045,239.930128 C171.140045,191.123128 206.992045,150.692128 253.798045,143.535128 C248.952045,142.794128 243.989045,142.410128 238.936045,142.410128 C185.076045,142.410128 141.416045,186.070128 141.416045,239.930128 C141.416045,293.790128 185.076045,337.450128 238.936045,337.450128 C243.989045,337.450128 248.952045,337.066128 253.798045,336.325128 C206.993045,329.167128 171.140045,288.736128 171.140045,239.930128 Z" id="Path" fill="#312F31"></path>
            <g id="Group" transform="translate(47.082045, 7.097128)" fill="#222022">
                <circle id="Oval" cx="27.771" cy="27.771" r="27.771"></circle>
                <circle id="Oval" cx="20.18" cy="393.836" r="18.343"></circle>
                <circle id="Oval" cx="356.969" cy="423.968" r="27.018"></circle>
                <circle id="Oval" cx="161.92" cy="205.939" r="25.189"></circle>
                <circle id="Oval" cx="182.14" cy="284.178" r="17.145"></circle>
                <circle id="Oval" cx="235.976" cy="232.833" r="14.397"></circle>
            </g>
        </g>
    </g>
</svg>